<svg width="154" height="40" viewBox="0 0 154 40" fill="none" xmlns="http://www.w3.org/2000/svg">
<path d="M58.7431 21.9049C62.2376 21.9049 64.5853 24.0667 64.5853 27.284C64.5853 28.6119 64.1811 29.7929 63.4179 30.6983C62.7841 31.4496 61.912 31.9857 60.9375 32.2295C62.1955 32.9149 63.0604 34.7201 63.8292 36.3276C64.432 37.588 65.0038 38.7825 65.5812 38.9104C65.6273 38.6316 65.8632 38.4187 66.1451 38.4187H66.1459C66.4676 38.4187 66.7384 38.7023 66.7384 39.0104C66.7384 39.3186 66.5724 39.5941 66.2833 39.7681C66.0856 39.892 65.7091 40 65.2644 40C64.6092 40 63.8054 39.7649 63.2042 38.9977C62.7706 38.4449 62.2003 37.4283 61.5967 36.3522C60.6922 34.74 59.581 32.7592 58.8734 32.3566V35.2491C58.8734 35.7907 58.987 36.6516 59.1268 36.689C59.2888 36.689 59.3801 36.7549 59.4285 36.8097C59.5365 36.9328 59.5183 37.0962 59.5159 37.1146L59.5032 37.2092H56.0127L56 37.1146C55.9976 37.0963 55.9794 36.9328 56.0873 36.8097C56.135 36.7549 56.2271 36.689 56.3899 36.689C56.5067 36.6548 56.6226 35.9416 56.6226 35.2498V23.865C56.6226 23.1733 56.5067 22.46 56.3892 22.4251C56.2271 22.4251 56.1358 22.3592 56.0873 22.3044C55.9793 22.1813 55.9976 22.0177 56 21.9994L56.0127 21.9049H58.7431ZM139.718 21.9049C143.213 21.9049 145.561 24.0667 145.561 27.284C145.561 28.6119 145.156 29.7929 144.393 30.6983C143.759 31.4496 142.887 31.9857 141.913 32.2295C143.171 32.9149 144.036 34.7201 144.805 36.3276C145.407 37.588 145.979 38.7825 146.557 38.9104C146.603 38.6316 146.838 38.4187 147.12 38.4187V38.418C147.441 38.418 147.712 38.7015 147.712 39.0096C147.712 39.3178 147.546 39.5934 147.257 39.7673C147.06 39.8912 146.684 39.9992 146.239 39.9992C145.584 39.9992 144.78 39.7641 144.179 38.9969C143.745 38.4442 143.175 37.4276 142.571 36.3515C141.667 34.74 140.556 32.7592 139.848 32.3566V35.2491C139.848 35.7907 139.962 36.6508 140.101 36.689C140.263 36.689 140.355 36.7549 140.403 36.8097C140.511 36.9328 140.493 37.0962 140.49 37.1146L140.478 37.2092H136.988L136.975 37.1146C136.973 37.0962 136.955 36.9328 137.063 36.8097C137.11 36.7549 137.202 36.689 137.365 36.689C137.482 36.6548 137.598 35.9416 137.598 35.2498V23.865C137.598 23.1732 137.482 22.46 137.364 22.4251C137.202 22.4251 137.11 22.3592 137.063 22.3044C136.955 22.1813 136.973 22.0177 136.975 21.9994L136.988 21.9049H139.718ZM68.1513 21.7254C69.6452 21.5038 71.1875 21.8921 71.2527 21.9088L71.3344 21.9303V22.0153C71.3344 22.5776 71.0462 23.5314 70.7674 24.4535C70.5554 25.1563 70.3536 25.8211 70.3115 26.2182C70.4116 26.0442 70.5943 25.9283 70.8031 25.9283C71.1248 25.9283 71.3956 26.1888 71.3956 26.5208C71.3956 26.8527 71.0994 27.2157 70.7356 27.3293C70.5331 27.3912 70.0193 27.496 69.6222 27.1236C69.0408 26.5795 69.206 25.6336 69.3521 24.7981C69.4721 24.1143 69.5848 23.4679 69.3037 23.1335C69.1536 22.9548 68.8939 22.8683 68.5103 22.8683C67.6962 22.8683 67.1911 23.6736 67.1911 24.9713H67.1919C67.1919 26.2388 68.1981 27.3007 69.2632 28.4253C70.5363 29.7699 71.9794 31.2931 71.9794 33.4796C71.9794 34.5311 71.6251 35.4976 70.9826 36.2005C70.271 36.9788 69.256 37.3902 68.048 37.3902C66.1817 37.3902 64.7203 35.9106 64.7203 34.022C64.7203 33.389 64.8839 32.8712 65.1929 32.5233C65.4589 32.2247 65.8219 32.0603 66.2158 32.0603C66.794 32.0603 67.3928 32.4487 67.3928 33.0976V33.2072H67.2832C66.9163 33.2072 66.7487 33.771 66.7487 34.2944C66.7487 35.2308 67.2038 36.2267 68.0472 36.2267C69.0487 36.2267 69.7485 35.0966 69.7485 33.4796C69.7485 31.7339 68.6199 30.6014 67.4254 29.4022C66.2143 28.1855 64.961 26.9274 64.961 24.9713C64.961 22.4116 67.4032 21.8397 68.1513 21.7254ZM116.515 21.7254C118.008 21.5038 119.551 21.8921 119.616 21.9088L119.698 21.9303V22.0153C119.698 22.5776 119.41 23.5314 119.131 24.4535C118.919 25.1563 118.717 25.8219 118.675 26.2182C118.775 26.045 118.958 25.9283 119.167 25.9283C119.488 25.9283 119.759 26.1888 119.759 26.5208C119.759 26.8527 119.462 27.2157 119.099 27.3293C118.896 27.392 118.383 27.496 117.986 27.1236C117.405 26.5795 117.57 25.6336 117.716 24.7981C117.836 24.1143 117.949 23.4679 117.667 23.1335C117.517 22.9548 117.258 22.8683 116.874 22.8683C116.06 22.8683 115.555 23.6736 115.555 24.9713C115.555 26.2388 116.561 27.3007 117.626 28.4253C118.899 29.7699 120.342 31.2932 120.342 33.4796C120.342 34.5311 119.988 35.4976 119.346 36.2005C118.634 36.9788 117.62 37.3902 116.411 37.3902C114.545 37.3902 113.083 35.9106 113.083 34.022C113.083 33.389 113.247 32.8712 113.556 32.5233C113.822 32.2247 114.185 32.0603 114.579 32.0603C115.157 32.0603 115.756 32.4487 115.756 33.0976V33.2072H115.646C115.279 33.2072 115.112 33.771 115.112 34.2944C115.112 35.2308 115.568 36.2267 116.411 36.2267C117.413 36.2267 118.112 35.0966 118.112 33.4796C118.112 31.7339 116.984 30.6014 115.789 29.4022C114.577 28.1855 113.325 26.9274 113.325 24.9713C113.325 22.4116 115.767 21.8397 116.515 21.7254ZM6.19799 30.5807L8.77116 21.9049H11.6033L11.616 21.9994C11.6184 22.0177 11.6367 22.1813 11.5287 22.3044C11.481 22.3592 11.3889 22.4251 11.2261 22.4251L11.2253 22.4259C11.1172 22.4466 10.983 23.0891 10.9727 23.8872V35.23C10.983 36.0274 11.1172 36.6699 11.2253 36.6898C11.3881 36.6898 11.4794 36.7557 11.5278 36.8105C11.6358 36.9336 11.6176 37.0972 11.6152 37.1155L11.6025 37.21H8.1128L8.10006 37.1155C8.09767 37.0971 8.07943 36.9336 8.18743 36.8105C8.23508 36.7557 8.32722 36.6898 8.49002 36.6898C8.52894 36.6779 8.66318 36.55 8.73148 35.4008C8.73625 35.3134 8.73942 35.2682 8.74259 35.2419V27.1363L5.85485 36.3816L2.90759 26.879V35.2491C2.90759 35.7907 3.02115 36.6516 3.16092 36.689C3.31021 36.689 3.39837 36.7501 3.44682 36.8017C3.5596 36.9225 3.55247 37.0893 3.55088 37.1075L3.54373 37.2092H0.771156L0.758475 37.1146C0.756079 37.0962 0.737891 36.9328 0.845845 36.8097C0.893497 36.7549 0.985629 36.689 1.14844 36.689C1.26518 36.6547 1.38112 35.9416 1.38112 35.2498V23.865C1.38112 23.1732 1.26517 22.46 1.14763 22.4251C0.985614 22.4251 0.894291 22.3592 0.845845 22.3044C0.737833 22.1813 0.756092 22.0177 0.758475 21.9994L0.771156 21.9049H3.62476L6.19799 30.5807ZM14.9509 33.9823C14.9509 34.9266 15.6283 35.6454 16.2295 35.9893C16.8308 35.6454 17.5082 34.9266 17.5082 33.9823V21.9049H20.3682L20.3808 21.9994C20.3832 22.0177 20.4015 22.1813 20.2935 22.3044C20.2458 22.3592 20.1537 22.4251 19.9909 22.4251C19.8837 22.4498 19.7582 23.0923 19.7582 23.8848L19.7384 33.9823C19.7384 35.6891 18.1324 37.1671 16.2319 37.2092C14.3155 37.1671 12.7009 35.6891 12.7009 33.9823V23.7443C12.7009 23.0589 12.573 22.4465 12.4682 22.4251C12.3054 22.4251 12.2141 22.3592 12.1656 22.3044C12.0576 22.1813 12.0759 22.0177 12.0782 21.9994L12.091 21.9049H14.9509V33.9823ZM35.3198 22.0145C35.3198 22.5768 35.0315 23.5306 34.7527 24.4527C34.5407 25.1555 34.339 25.8203 34.2969 26.2174C34.3969 26.0443 34.5796 25.9276 34.7885 25.9275H34.7893C35.1109 25.9276 35.3817 26.1991 35.3817 26.52C35.3817 26.8226 35.1498 27.2086 34.7202 27.3285C34.5176 27.3904 34.0054 27.4937 33.6091 27.122C33.0047 26.5573 33.1508 25.5733 33.2795 24.7044C33.3788 24.0325 33.4725 23.3972 33.2112 23.0874C33.0905 22.9453 32.8959 22.873 32.6147 22.8674H31.861V35.2491C31.861 35.7907 31.9746 36.6516 32.1144 36.689C32.2637 36.689 32.3527 36.7501 32.4003 36.8017C32.5131 36.9225 32.5059 37.0893 32.5043 37.1075L32.4972 37.2092H29.0003L28.9876 37.1146C28.9852 37.0962 28.9663 36.9272 29.0742 36.8041C29.1203 36.7525 29.2068 36.6898 29.3577 36.6898C29.4713 36.6897 29.6103 36.0258 29.6103 35.2507V22.8691H28.855C28.5762 22.8746 28.3817 22.9469 28.261 23.0891C27.9989 23.3988 28.0933 24.0334 28.1926 24.7061C28.3213 25.5749 28.4666 26.5597 27.863 27.1236C27.5835 27.3865 27.1991 27.4579 26.7527 27.3301C26.4414 27.234 26.1102 26.8869 26.1102 26.5208C26.1102 26.1936 26.3668 25.9283 26.6821 25.9283C26.883 25.9283 27.0649 26.0348 27.1721 26.1928C27.13 25.7774 26.929 25.1047 26.717 24.3947C26.4485 23.4949 26.1706 22.5649 26.1706 22.0145V21.9049H35.3198V22.0145ZM39.1328 21.9994C39.1351 22.0177 39.1534 22.1813 39.0454 22.3044C38.9977 22.3592 38.9056 22.4251 38.7428 22.4251V22.4259C38.6229 22.4259 38.4902 23.1788 38.4902 23.865V35.2498C38.4902 35.9352 38.6221 36.6889 38.7428 36.689C38.9056 36.689 38.9969 36.7549 39.0454 36.8097C39.1533 36.9328 39.1352 37.0962 39.1328 37.1146L39.12 37.2092H35.6295L35.6168 37.1146C35.6145 37.0963 35.5962 36.9328 35.7042 36.8097C35.7519 36.7549 35.844 36.689 36.0068 36.689C36.1346 36.6445 36.2395 35.8654 36.2395 35.2498V23.865C36.2395 23.2495 36.1346 22.4703 36.0052 22.4251H36.0044C35.844 22.4251 35.7527 22.3592 35.7042 22.3044C35.5962 22.1813 35.6145 22.0177 35.6168 21.9994L35.6295 21.9049H39.12L39.1328 21.9994ZM42.9012 21.9859C42.9068 22.0057 42.9489 22.1789 42.8504 22.3076C42.8091 22.3608 42.7281 22.4251 42.5748 22.4251C42.4311 22.5061 42.5319 23.5569 42.6002 23.838L44.0767 33.2818L45.9899 23.8285L45.9931 23.8221C46.0598 23.6045 46.2297 22.5291 46.0891 22.4235C45.9399 22.4211 45.8612 22.3599 45.8223 22.3059C45.7278 22.1749 45.7826 21.9995 45.7889 21.9796L45.7898 21.9804L45.8144 21.9057H48.5925L48.5758 22.0296C48.5576 22.1662 48.44 22.4259 48.1255 22.4259C48.004 22.4259 47.7332 22.985 47.5084 23.8888L45.2156 35.2713C45.1068 35.7073 44.9892 36.6008 45.1115 36.6906H45.1163C45.2632 36.6906 45.3402 36.7541 45.3791 36.8081C45.4736 36.9391 45.4189 37.1147 45.4125 37.1345L45.3879 37.2092H41.8712L41.8465 37.1345C41.8402 37.1155 41.787 36.9447 41.8815 36.8137C41.9228 36.7565 42.0062 36.689 42.1713 36.689C42.1761 36.685 42.3318 36.5722 42.1531 35.3325C42.1491 35.3023 42.1459 35.28 42.1443 35.2657L40.3558 23.8904C40.3511 23.8737 40.3447 23.8443 40.3296 23.7792C40.0302 22.4632 39.8396 22.4251 39.8189 22.4251C39.4997 22.4251 39.398 22.1615 39.3885 22.0217L39.3806 21.9049H42.8798L42.9012 21.9859ZM96.9539 21.9835L99.5041 30.5807L102.077 21.9049H104.909L104.922 21.9994C104.924 22.0177 104.943 22.1813 104.835 22.3044C104.787 22.3592 104.695 22.4251 104.532 22.4251H104.534C104.426 22.4457 104.292 23.0883 104.281 23.8865V35.2292C104.292 36.0266 104.426 36.6691 104.534 36.689C104.697 36.689 104.788 36.7549 104.836 36.8097C104.944 36.9328 104.926 37.0962 104.924 37.1146L104.911 37.2092H101.421L101.409 37.1146C101.406 37.0962 101.388 36.9328 101.496 36.8097C101.544 36.7549 101.636 36.689 101.799 36.689C101.837 36.677 101.972 36.549 102.04 35.4C102.045 35.3134 102.048 35.2681 102.051 35.2419V27.1363L99.1634 36.3816L96.2153 26.879V35.2491C96.2153 35.7907 96.3288 36.6516 96.4686 36.689C96.6179 36.689 96.7069 36.7501 96.7545 36.8017C96.8673 36.9225 96.8594 37.0893 96.8586 37.1075L96.8514 37.2092H94.0789L94.0662 37.1146C94.0638 37.0962 94.0456 36.9328 94.1535 36.8097C94.2012 36.7549 94.2933 36.689 94.4561 36.689C94.5729 36.654 94.6888 35.9408 94.6888 35.2498V23.865C94.6888 23.1732 94.5729 22.46 94.4553 22.4251C94.2933 22.4251 94.2012 22.3592 94.1535 22.3044C94.0455 22.1813 94.0638 22.0177 94.0662 21.9994L94.0789 21.9049H96.9308L96.9539 21.9835ZM129.497 22.0145C129.497 22.5768 129.209 23.5306 128.93 24.4527C128.718 25.1555 128.516 25.8203 128.474 26.2174C128.574 26.0435 128.757 25.9275 128.966 25.9275L128.967 25.9267C129.288 25.9267 129.559 26.1983 129.559 26.5192C129.559 26.8226 129.327 27.2086 128.898 27.3285C128.694 27.3904 128.183 27.4937 127.786 27.122C127.182 26.5581 127.328 25.5733 127.457 24.7044C127.556 24.0325 127.651 23.3972 127.389 23.0874C127.268 22.9453 127.073 22.873 126.792 22.8674H126.038V35.2491C126.038 35.7907 126.152 36.6516 126.292 36.689C126.441 36.689 126.53 36.7501 126.578 36.8017C126.69 36.9225 126.683 37.0893 126.682 37.1075L126.675 37.2092H123.178L123.165 37.1146C123.163 37.0962 123.144 36.9272 123.252 36.8041C123.298 36.7525 123.384 36.6898 123.535 36.6898C123.649 36.6898 123.788 36.0258 123.788 35.2507V22.8691H123.032C122.754 22.8746 122.558 22.9469 122.438 23.0891C122.176 23.3988 122.271 24.0334 122.37 24.7061C122.499 25.5749 122.644 26.5597 122.04 27.1236C121.761 27.3865 121.376 27.4579 120.93 27.3301C120.619 27.234 120.288 26.8861 120.288 26.5208C120.288 26.1936 120.544 25.9283 120.859 25.9283C121.06 25.9283 121.242 26.0348 121.349 26.1928C121.307 25.7774 121.106 25.1047 120.894 24.3947C120.626 23.4949 120.348 22.5649 120.348 22.0145V21.9049H129.497V22.0145ZM24.3185 21.9986C24.3209 22.0169 24.3391 22.1805 24.2311 22.3036C24.1835 22.3584 24.0913 22.4243 23.9285 22.4243C23.8205 22.445 23.6863 23.0875 23.6759 23.8856V36.2458H24.6528C26.0975 36.1894 26.3937 33.779 26.3937 33.1365C26.3937 32.8522 26.4819 32.6394 26.6558 32.5051C26.9687 32.2637 27.4365 32.3828 27.4564 32.3876L27.5771 32.4193L27.5779 32.4186L27.5302 32.5345C27.5231 32.5512 26.8488 34.2508 27.535 37.0734L27.5675 37.2084H20.816L20.8033 37.1139C20.8009 37.0956 20.7827 36.932 20.8907 36.8089C20.9383 36.7541 21.0305 36.6882 21.1933 36.6882C21.31 36.6532 21.426 35.9408 21.426 35.2491V23.8642C21.426 23.1725 21.31 22.4593 21.1925 22.4243C21.0305 22.4243 20.9391 22.3584 20.8907 22.3036C20.7827 22.1805 20.8009 22.0169 20.8033 21.9986L20.816 21.9041H24.3057L24.3185 21.9986ZM55.4758 22.0137C55.4758 22.5641 55.1978 23.4941 54.9294 24.3939C54.7166 25.1071 54.5149 25.783 54.4743 26.192C54.5824 26.034 54.7634 25.9275 54.9644 25.9275C55.2685 25.9276 55.5362 26.2047 55.5362 26.52C55.5362 26.8615 55.255 27.2165 54.8961 27.3285C54.6308 27.4039 54.1368 27.477 53.7802 27.1204C53.1679 26.5573 53.3164 25.567 53.4474 24.6941C53.5475 24.0262 53.642 23.3949 53.3831 23.0875C53.2632 22.9461 53.0694 22.8738 52.789 22.8683H51.7542V30.9755C52.3403 30.9636 53.0367 30.8603 53.0844 30.7412C53.0837 30.5808 53.1496 30.4895 53.2044 30.441C53.3275 30.333 53.4911 30.3513 53.5094 30.3536L53.6039 30.3663V32.5695L53.5094 32.5822C53.4903 32.5845 53.3219 32.6036 53.1988 32.4956C53.1472 32.4495 53.0845 32.363 53.0844 32.2121C53.0844 32.0977 52.4086 31.973 51.7542 31.9603V36.2458H52.7311C54.1757 36.1894 54.472 33.779 54.472 33.1365C54.472 32.8522 54.5601 32.6394 54.734 32.5051C55.0469 32.2637 55.5147 32.3828 55.5346 32.3876L55.6553 32.4193L55.6561 32.4186L55.6085 32.5345C55.6013 32.5512 54.927 34.2508 55.6132 37.0734L55.6458 37.2084H48.8942L48.8816 37.1139C48.8792 37.0956 48.8609 36.932 48.9689 36.8089C49.0166 36.7541 49.1087 36.6882 49.2715 36.6882C49.3883 36.6532 49.5042 35.9408 49.5042 35.2491V23.8642C49.5042 23.1725 49.3882 22.4593 49.2707 22.4243C49.1087 22.4243 49.0174 22.3584 48.9689 22.3036C48.8609 22.1805 48.8792 22.0169 48.8816 21.9986L48.8942 21.9041H55.4758V22.0137ZM78.6062 22.0137C78.6062 22.5641 78.3282 23.4941 78.0598 24.3939C77.8469 25.1071 77.6452 25.783 77.6047 26.192C77.7127 26.034 77.8938 25.9275 78.0947 25.9275C78.3989 25.9276 78.6665 26.2047 78.6665 26.52C78.6665 26.8615 78.3854 27.2165 78.0264 27.3285C77.7612 27.4039 77.2672 27.477 76.9106 27.1204C76.2983 26.5573 76.4468 25.567 76.5778 24.6941C76.6779 24.0262 76.7724 23.3949 76.5135 23.0875C76.3935 22.9461 76.1997 22.8738 75.9194 22.8683H74.8846V30.9755C75.4706 30.9636 76.1671 30.8603 76.2148 30.7412C76.214 30.5808 76.28 30.4895 76.3348 30.441C76.4579 30.333 76.6215 30.3513 76.6398 30.3536L76.7343 30.3663V32.5695L76.6398 32.5822C76.6207 32.5845 76.4523 32.6036 76.3292 32.4956C76.2776 32.4495 76.2148 32.363 76.2148 32.2121C76.2148 32.0977 75.539 31.973 74.8846 31.9603V36.2458H75.8615C77.3061 36.1894 77.6023 33.779 77.6023 33.1365C77.6023 32.8522 77.6905 32.6394 77.8644 32.5051C78.1773 32.2637 78.6451 32.3828 78.665 32.3876L78.7857 32.4193L78.7865 32.4186L78.7388 32.5345C78.7317 32.5512 78.0574 34.2508 78.7436 37.0734L78.7761 37.2084H72.0246L72.0119 37.1139C72.0095 37.0956 71.9913 36.932 72.0993 36.8089C72.147 36.7541 72.2391 36.6882 72.4019 36.6882C72.5186 36.6532 72.6346 35.9408 72.6346 35.2491V23.8642C72.6346 23.1725 72.5186 22.4593 72.4011 22.4243C72.2391 22.4243 72.1478 22.3584 72.0993 22.3036C71.9913 22.1805 72.0096 22.0169 72.0119 21.9986L72.0246 21.9041H78.6062V22.0137ZM136.452 22.0137C136.452 22.5641 136.174 23.4941 135.906 24.3939C135.693 25.1071 135.491 25.783 135.45 26.192C135.559 26.034 135.74 25.9275 135.941 25.9275C136.245 25.9276 136.512 26.2047 136.512 26.52C136.512 26.8615 136.231 27.2165 135.872 27.3285C135.607 27.4039 135.113 27.477 134.756 27.1204C134.143 26.5573 134.292 25.567 134.423 24.6941C134.523 24.0262 134.617 23.3949 134.358 23.0875C134.238 22.9461 134.045 22.8738 133.764 22.8683H132.729V30.9755C133.316 30.9636 134.012 30.8603 134.06 30.7412C134.059 30.5808 134.125 30.4895 134.18 30.441C134.303 30.333 134.466 30.3512 134.485 30.3536L134.579 30.3663V32.5695L134.485 32.5822C134.466 32.5845 134.297 32.6036 134.174 32.4956C134.122 32.4495 134.06 32.363 134.06 32.2121C134.06 32.0977 133.384 31.973 132.729 31.9603V36.2458H133.706C135.151 36.1894 135.447 33.779 135.447 33.1365C135.447 32.8522 135.535 32.6394 135.709 32.5051C136.021 32.2638 136.49 32.3827 136.51 32.3876L136.631 32.4193L136.633 32.4186L136.585 32.5345C136.578 32.5516 135.904 34.2511 136.59 37.0734L136.623 37.2084H129.871L129.859 37.1139C129.856 37.0956 129.838 36.932 129.946 36.8089C129.994 36.7541 130.086 36.6882 130.248 36.6882C130.365 36.654 130.481 35.9408 130.481 35.2491V23.8642C130.481 23.1725 130.365 22.4593 130.248 22.4243C130.086 22.4243 129.994 22.3584 129.946 22.3036C129.838 22.1805 129.856 22.0169 129.859 21.9986L129.871 21.9041H136.452V22.0137ZM108.774 21.9724C108.782 21.9923 108.849 22.1709 108.759 22.3044C108.722 22.3592 108.645 22.4243 108.491 22.4243C108.494 22.4267 108.363 22.5768 108.705 23.7904C108.712 23.8142 108.717 23.83 108.718 23.8372L109.873 28.8597L110.902 23.8277L110.908 23.815C110.984 23.6077 111.225 22.5434 111.098 22.4211C110.95 22.4243 110.876 22.36 110.839 22.3052C110.748 22.1718 110.816 21.9931 110.824 21.9732L110.852 21.9049H113.634L113.608 22.036L113.607 22.0343C113.58 22.1686 113.443 22.4235 113.117 22.4235C112.936 22.4338 112.505 23.5457 112.419 23.8896L110.632 31.7602V35.2475C110.632 35.7892 110.746 36.65 110.886 36.6874C111.035 36.6874 111.124 36.7486 111.172 36.8002C111.284 36.9209 111.277 37.0877 111.276 37.106L111.269 37.2076H107.772L107.759 37.1131C107.757 37.0947 107.738 36.9256 107.846 36.8026C107.892 36.7509 107.978 36.6882 108.129 36.6882C108.243 36.6882 108.382 36.0242 108.382 35.2491V32.1438L106.475 23.8952C106.47 23.8809 106.462 23.8586 106.452 23.83C105.965 22.441 105.745 22.4251 105.735 22.4251C105.426 22.4251 105.293 22.1702 105.266 22.0352L105.24 21.9041H108.746L108.774 21.9724ZM153.216 22.0343C153.189 22.1685 153.052 22.4234 152.727 22.4234C152.546 22.4338 152.114 23.5456 152.029 23.8895L150.242 31.7601V35.2475C150.242 35.7891 150.355 36.6499 150.495 36.6873C150.644 36.6873 150.733 36.7485 150.781 36.8001C150.894 36.9208 150.886 37.0876 150.885 37.1059L150.878 37.2075H147.381L147.368 37.113C147.366 37.0946 147.347 36.9255 147.455 36.8025C147.501 36.7509 147.587 36.6881 147.738 36.6881C147.852 36.6881 147.991 36.0242 147.991 35.249V32.1437L146.084 23.8951C146.079 23.8808 146.071 23.8586 146.061 23.83C145.574 22.4409 145.354 22.4251 145.345 22.4251C145.035 22.4251 144.902 22.1701 144.875 22.0351L144.849 21.904H148.355L148.383 21.9723C148.391 21.9922 148.459 22.1709 148.368 22.3043C148.331 22.3591 148.255 22.4243 148.101 22.4243C148.103 22.4266 147.973 22.5768 148.314 23.7903C148.321 23.8141 148.326 23.83 148.328 23.8371L149.482 28.8597L150.511 23.8276L150.517 23.8149C150.594 23.6076 150.834 22.5434 150.707 22.4211C150.56 22.4242 150.486 22.3599 150.448 22.3051C150.358 22.1717 150.425 21.993 150.433 21.9732L150.461 21.9049L150.46 21.9032H153.242L153.216 22.0343ZM84.3277 25.2374C85.5754 25.2938 86.549 26.2349 86.549 27.3801L86.5482 27.3809V31.7355C86.5355 32.8617 85.5944 33.7623 84.311 33.8775H84.2983C83.0403 33.8354 82.0547 32.8943 82.0547 31.7347V27.3801C82.0547 26.2063 83.0466 25.2652 84.3125 25.2374H84.3277ZM90.9052 25.3462C90.9051 25.7107 90.7233 26.3199 90.547 26.9092C90.4279 27.3094 90.3135 27.6907 90.2682 27.9567C90.3413 27.8972 90.4342 27.8606 90.5335 27.8606L90.5343 27.8582C90.7527 27.8582 90.9449 28.0449 90.9449 28.2824C90.9449 28.5198 90.7495 28.7676 90.5009 28.8454C90.1888 28.9344 89.918 28.8828 89.7353 28.7001C89.3215 28.3205 89.42 27.6644 89.5074 27.0855C89.5717 26.659 89.632 26.2556 89.474 26.0681C89.4033 25.9848 89.2858 25.9418 89.1151 25.9387H88.4789V30.4402C88.8141 30.4299 89.2024 30.3735 89.2707 30.3036C89.2739 30.198 89.3192 30.136 89.3581 30.1019C89.451 30.0209 89.5772 30.0351 89.5908 30.0367L89.6853 30.0495V31.5529L89.5908 31.5656C89.5772 31.568 89.451 31.5814 89.3581 31.5004C89.32 31.4663 89.2739 31.4043 89.2707 31.2987C89.2024 31.2296 88.814 31.1725 88.4789 31.1621V32.5671C88.4805 32.5869 88.4829 32.6211 88.4853 32.6639C88.5194 33.2667 88.5806 33.4232 88.6179 33.4606C88.7307 33.4637 88.7966 33.5114 88.8315 33.5519C88.9125 33.6448 88.899 33.7671 88.8974 33.7806L88.8847 33.8751H86.5418L86.5291 33.7806C86.5276 33.7671 86.514 33.6448 86.595 33.5519C86.63 33.5114 86.6951 33.4637 86.8079 33.4606C86.8762 33.3891 86.9349 32.9761 86.9349 32.5599V26.5653C86.9349 26.1428 86.8762 25.7243 86.8079 25.6512C86.6951 25.648 86.63 25.6003 86.595 25.5598C86.514 25.4669 86.5276 25.3446 86.5291 25.3311L86.5418 25.2366H90.9052V25.3462ZM84.3014 26.1165C83.8599 26.3913 83.5978 26.8592 83.5978 27.3801V31.7347C83.5978 32.2557 83.8599 32.7235 84.3014 32.9983C84.743 32.7235 85.0051 32.2557 85.0051 31.7347V27.3801C85.0051 26.8592 84.743 26.3913 84.3014 26.1165ZM58.8726 31.3384H58.9441C60.623 31.3384 62.4354 29.7651 62.4354 27.2237C62.4354 24.4051 60.6095 23.0469 58.8726 22.9524V31.3384ZM139.848 31.3384H139.919C141.598 31.3384 143.411 29.7651 143.411 27.2237C143.411 24.405 141.585 23.0469 139.848 22.9524V31.3384ZM70.688 14.4243C70.7261 14.522 70.889 14.7698 71.4481 15.3964L72.0739 16.0985C72.2319 16.2756 72.367 16.4265 72.4925 16.5615V15.6299C72.4925 14.8778 72.4257 14.7499 72.4178 14.738C72.4186 14.7404 72.3828 14.7174 72.2121 14.696L72.1017 14.6832L72.0763 14.6618H72.0771C72.0302 14.622 72.0088 14.5553 72.0207 14.4878C72.031 14.4283 72.0684 14.3806 72.1192 14.3616L72.1398 14.3545H72.1621C72.3884 14.364 72.5385 14.3679 72.699 14.3679C72.8967 14.3679 73.015 14.3632 73.1651 14.3545L73.2001 14.3521L73.2295 14.3703C73.2731 14.3973 73.3018 14.445 73.3081 14.5006C73.3145 14.5593 73.2954 14.6173 73.2573 14.6554L73.2319 14.6808L73.1318 14.6952C73.0262 14.711 72.9714 14.7325 72.9523 14.7436C72.8975 14.8874 72.8999 15.3789 72.8999 15.5672V16.7267C72.8999 17.3168 72.9078 17.4757 72.9126 17.5177L72.9149 17.5415L72.907 17.5646C72.8872 17.6249 72.8268 17.6901 72.7164 17.6901H72.6601L72.6275 17.644C72.5671 17.5583 72.3995 17.3605 72.0469 16.9594L70.9819 15.7475C70.9366 15.6959 70.8659 15.6125 70.7905 15.5227C70.7301 15.4512 70.6658 15.3758 70.6086 15.3091V16.355C70.6086 17.1087 70.6697 17.239 70.6769 17.2517C70.6817 17.2557 70.7238 17.2763 70.8246 17.2843L71.0168 17.3025L71.0454 17.3414C71.0772 17.3843 71.0907 17.4391 71.0827 17.4923C71.0756 17.5416 71.0502 17.5836 71.0121 17.6106L70.9811 17.6329L70.9438 17.6313C70.7254 17.6218 70.5713 17.6178 70.4116 17.6178C70.2155 17.6178 70.0948 17.6226 69.9407 17.6313L69.9025 17.6337L69.8716 17.6115C69.8303 17.5821 69.8041 17.5328 69.7993 17.4764C69.7945 17.4193 69.8128 17.3661 69.8486 17.3303L69.8756 17.3033L70.0376 17.285C70.1162 17.2747 70.1448 17.2588 70.1527 17.2533C70.2028 17.1039 70.2019 16.5933 70.2019 16.3979V15.0287C70.2019 14.9032 70.1956 14.8444 70.1297 14.7722C70.0955 14.738 70.0169 14.7094 69.9121 14.6967L69.7969 14.6832L69.7699 14.6562C69.7294 14.6157 69.7104 14.5522 69.7207 14.4902C69.7294 14.4346 69.7612 14.3893 69.8073 14.3663L69.8343 14.3528L69.8644 14.3552C70.0527 14.3687 70.2957 14.3687 70.3751 14.3687C70.4474 14.3687 70.5181 14.364 70.5697 14.356L70.6562 14.3425L70.688 14.4243ZM74.7074 14.3544C75.0323 14.3544 75.4111 14.3719 75.7558 14.4989C76.384 14.7269 76.7596 15.2717 76.7596 15.9563C76.7596 16.5893 76.4459 17.123 75.8987 17.4208C75.5398 17.6138 75.1133 17.6543 74.8178 17.6543C74.6455 17.6543 74.4771 17.6416 74.3286 17.6312C74.2245 17.6233 74.134 17.617 74.0697 17.617C73.891 17.617 73.7314 17.621 73.5003 17.6305L73.4716 17.632L73.4462 17.6194C73.4025 17.5979 73.3724 17.5526 73.3629 17.4947C73.3525 17.4303 73.37 17.3684 73.4089 17.3295L73.4351 17.3033L73.5773 17.285L73.5788 17.2858C73.699 17.2694 73.7592 17.1142 73.7592 16.8204V15.0755C73.7592 14.7555 73.7353 14.7523 73.6368 14.738L73.5129 14.7213L73.4931 14.7086C73.4391 14.6744 73.4073 14.6085 73.4137 14.5402C73.4193 14.4751 73.4566 14.4227 73.5146 14.3996L73.5312 14.3917H73.5487C73.976 14.3663 74.3445 14.3544 74.7074 14.3544ZM68.1616 14.2933C68.2474 14.2933 68.3141 14.3393 68.3355 14.414C68.3872 14.5879 68.4499 14.7714 68.5103 14.9485L69.1647 16.8697C69.2973 17.2644 69.3394 17.2691 69.4641 17.2834L69.6158 17.3001L69.6388 17.3168C69.6801 17.347 69.7039 17.3954 69.7055 17.4534C69.7063 17.5027 69.6912 17.5686 69.6436 17.6067L69.611 17.6329L69.5697 17.6313C69.3712 17.6218 69.2115 17.6178 69.0194 17.6178C68.8486 17.6178 68.7033 17.6233 68.5865 17.6281L68.4674 17.6329L68.4427 17.6202C68.3911 17.594 68.357 17.54 68.3522 17.4756C68.3475 17.4105 68.3721 17.3518 68.4189 17.3184L68.4427 17.3017L68.6048 17.285C68.6318 17.2826 68.6508 17.2787 68.6635 17.2755C68.6524 17.2191 68.6246 17.1341 68.6135 17.1024L68.411 16.4765C68.4046 16.4575 68.4007 16.4472 68.3983 16.4408C68.388 16.4392 68.3665 16.4376 68.3268 16.4376H67.6335C67.5962 16.4376 67.5803 16.4392 67.5731 16.4408C67.5739 16.4432 67.5691 16.4536 67.5628 16.4734L67.4023 16.9554C67.3348 17.1579 67.315 17.2453 67.3094 17.2811C67.3174 17.2826 67.3277 17.2842 67.3404 17.285L67.5223 17.3017L67.5461 17.3192C67.5946 17.3533 67.6199 17.4161 67.6136 17.4828C67.6072 17.5463 67.5715 17.5987 67.5175 17.6226L67.4921 17.6337L67.4643 17.6313C67.3785 17.6249 67.2808 17.6234 67.1458 17.621L66.9925 17.6178C66.8829 17.6178 66.763 17.6226 66.6574 17.6273L66.5224 17.6329L66.493 17.613V17.6115C66.4501 17.5829 66.4223 17.5281 66.4192 17.4653C66.416 17.4058 66.4358 17.3533 66.4747 17.3215L66.5009 17.3001L66.6868 17.2834C66.763 17.2771 66.8234 17.2485 66.8702 17.1278C66.8957 17.0619 66.9258 16.988 66.9608 16.9022C67.037 16.7156 67.1411 16.459 67.2737 16.1048L67.7423 14.8651C67.7979 14.723 67.8241 14.6427 67.8153 14.5974L67.7971 14.4998L67.8924 14.472C67.9718 14.4489 68.0329 14.3854 68.0782 14.3322L68.1108 14.2933H68.1616ZM87.1995 14.4298C87.2273 14.5077 87.2479 14.7277 87.2734 15.0072L87.2821 15.1057L87.2606 15.1375C87.232 15.1804 87.1772 15.2082 87.1145 15.2113C87.0549 15.2145 87.0025 15.1946 86.9708 15.1557L86.9573 15.1391L86.9421 15.0915C86.8754 14.8826 86.8421 14.796 86.6793 14.7555C86.5951 14.7348 86.4513 14.7309 86.2607 14.7309H85.9025V15.7419H86.2107C86.4924 15.7419 86.56 15.722 86.5665 15.7196C86.5771 15.7166 86.5808 15.7141 86.5808 15.7141C86.5808 15.7141 86.5927 15.7022 86.6046 15.6418L86.6467 15.4266L86.665 15.4052C86.7007 15.3623 86.7619 15.3408 86.8278 15.3464C86.8889 15.3511 86.9382 15.3805 86.9636 15.425L86.9779 15.4504V15.4798C86.9779 15.5298 86.9739 15.595 86.9699 15.6665C86.9652 15.7522 86.9596 15.8499 86.9596 15.9436C86.9596 16.0334 86.9652 16.1271 86.9699 16.2096C86.9739 16.2779 86.9779 16.3383 86.9779 16.3844V16.413L86.9636 16.4384C86.9382 16.4829 86.8881 16.5114 86.8278 16.517C86.7611 16.5226 86.6999 16.5011 86.665 16.4583L86.6483 16.4384L86.6014 16.2343C86.5848 16.1581 86.5657 16.1477 86.5395 16.1414C86.4783 16.1239 86.3465 16.1215 86.2123 16.1215H85.9042V16.7831C85.9042 16.9602 85.9105 17.1317 85.9614 17.1857C85.9788 17.204 86.032 17.2572 86.4371 17.2572C86.7945 17.2572 86.9017 17.2374 86.9763 17.2C87.0113 17.1809 87.1209 17.0689 87.2535 16.8037L87.2654 16.7791L87.2877 16.7632C87.3298 16.7323 87.3885 16.7235 87.4441 16.7386C87.5005 16.7537 87.545 16.7903 87.5664 16.8395L87.5807 16.8713L87.5736 16.9054C87.5394 17.0746 87.4227 17.4351 87.3583 17.5693L87.3282 17.6329L87.2575 17.6313C86.8477 17.6226 86.4339 17.6178 86.0296 17.6178H85.6166C85.4213 17.6178 85.2704 17.6218 84.9956 17.6321H84.9678L84.9432 17.6194C84.8995 17.5979 84.8693 17.5527 84.8597 17.4947C84.8494 17.4304 84.8669 17.3684 84.9058 17.3295L84.9336 17.3017L85.1242 17.2842L85.121 17.2874C85.2958 17.2715 85.3061 17.2707 85.3061 16.822V15.1693C85.3061 14.8701 85.245 14.7134 85.1227 14.6991L85.0234 14.6864L85.0019 14.6721C84.9566 14.6419 84.9329 14.5855 84.9368 14.5188C84.9408 14.4489 84.9733 14.3925 85.0226 14.3679L85.048 14.3552L85.0766 14.3568C85.2878 14.3663 85.4387 14.3703 85.6134 14.3703H86.4768C86.719 14.3703 87.0199 14.3703 87.0708 14.36L87.1645 14.3401L87.1995 14.4298ZM78.1535 14.244C78.1988 14.2138 78.3179 14.1964 78.379 14.2575L78.4029 14.2813L78.4092 14.3147C78.4171 14.3583 78.464 14.3679 78.6689 14.3679H80.552C80.7728 14.3679 80.7744 14.3655 80.8157 14.294L80.8347 14.2615L80.8696 14.2472L80.8689 14.2464C80.9332 14.221 81.0492 14.2297 81.0904 14.3131L81.1087 14.3504L81.0976 14.3901C81.0507 14.5625 81.019 14.9238 81.0317 15.0485L81.0348 15.0803L81.0205 15.1089C80.9959 15.1581 80.9467 15.1899 80.8848 15.197C80.8331 15.2026 80.7616 15.1907 80.7187 15.139L80.6981 15.1144L80.6941 15.0827C80.6727 14.9024 80.6354 14.8333 80.6227 14.8222C80.5393 14.761 80.382 14.7292 80.1557 14.7292H79.8062V16.8196C79.8062 17.1198 79.8647 17.275 79.9817 17.285L80.1572 17.3017L80.1803 17.3168C80.2263 17.347 80.2494 17.4025 80.2454 17.4692C80.2414 17.5391 80.2089 17.5955 80.1596 17.6201L80.135 17.6313H80.1072C79.8364 17.6218 79.6863 17.6178 79.5092 17.6178C79.3321 17.6178 79.1796 17.6217 78.8746 17.632H78.8468L78.8222 17.6194C78.773 17.594 78.7412 17.5391 78.738 17.4724C78.7349 17.4041 78.7634 17.3453 78.8135 17.3136L78.8357 17.2993L79.0271 17.2834C79.201 17.2675 79.2113 17.2667 79.2113 16.818V14.7285H78.9302C78.8214 14.7285 78.5331 14.7285 78.4394 14.8142C78.3441 14.9024 78.3044 14.9914 78.2591 15.0946L78.2472 15.1208L78.2242 15.1383C78.1829 15.1693 78.1273 15.1796 78.0725 15.1668C78.0145 15.1533 77.966 15.116 77.9414 15.0676L77.9208 15.0263L77.9366 14.9826C78.0057 14.7896 78.074 14.5013 78.1066 14.3163L78.1146 14.2702L78.1535 14.244ZM84.6413 14.3671C84.6906 14.3917 84.7231 14.4481 84.7271 14.518C84.7311 14.5847 84.7072 14.6403 84.662 14.6705L84.6389 14.6856L84.515 14.6975C84.3975 14.7097 84.3387 14.8661 84.3387 15.1668V16.8196C84.3387 17.1156 84.3986 17.2707 84.5182 17.285L84.6548 17.3017L84.6763 17.316C84.7223 17.3461 84.7453 17.4018 84.7414 17.4685C84.7374 17.5384 84.7049 17.5948 84.6556 17.6194L84.6302 17.6305H84.6016C84.3991 17.6225 84.2275 17.617 84.0504 17.617C83.8733 17.617 83.7137 17.6209 83.5 17.6305L83.4715 17.632L83.4461 17.6194C83.4024 17.5979 83.3722 17.5526 83.3626 17.4947C83.3523 17.4303 83.3698 17.3684 83.4087 17.3295L83.4341 17.304L83.5565 17.285C83.6819 17.2644 83.7446 17.1089 83.7446 16.8188V16.1374C83.7113 16.1342 83.6549 16.1342 83.6248 16.1342H82.3111C82.2802 16.1342 82.2245 16.1342 82.1912 16.1374V16.8188C82.1912 17.2643 82.1984 17.2651 82.3739 17.2842L82.5335 17.3009L82.5557 17.316C82.6018 17.3461 82.6248 17.4018 82.6209 17.4685C82.6169 17.5384 82.5843 17.5948 82.5351 17.6194L82.5105 17.632L82.5089 17.6312H82.4811C82.2357 17.6225 82.0792 17.6177 81.9021 17.6177C81.7727 17.6177 81.6607 17.6217 81.5487 17.6257C81.4907 17.6281 81.4319 17.6297 81.3716 17.632H81.3446L81.32 17.6201C81.2763 17.5987 81.2461 17.5534 81.2366 17.4955C81.2262 17.4311 81.2437 17.3692 81.2826 17.3303L81.3072 17.3057L81.4192 17.2858C81.5368 17.2651 81.5955 17.1097 81.5955 16.8196V15.1668C81.5955 14.7102 81.5733 14.7086 81.4256 14.6975L81.2779 14.6864L81.254 14.6705C81.208 14.6403 81.185 14.5847 81.1889 14.518C81.1929 14.4481 81.2254 14.3917 81.2747 14.3671L81.2985 14.3552H81.3255C81.4145 14.3575 81.4931 14.3599 81.567 14.3623C81.6797 14.3663 81.7838 14.3695 81.9021 14.3695C82.0681 14.3695 82.2206 14.3655 82.4294 14.356L82.4581 14.3544L82.4835 14.3671C82.5327 14.3917 82.5652 14.4481 82.5692 14.518C82.5732 14.5847 82.5494 14.6403 82.5041 14.6705L82.4819 14.6856L82.3675 14.6975C82.2489 14.7102 82.1896 14.8669 82.1896 15.1677V15.7307C82.2214 15.7331 82.2722 15.7331 82.3096 15.7331H83.6231C83.6605 15.7331 83.7113 15.7331 83.7431 15.7307V15.1677C83.7431 14.8664 83.6824 14.7097 83.5612 14.6975L83.4468 14.6856L83.4246 14.6705C83.3785 14.6403 83.3555 14.5847 83.3595 14.518C83.3634 14.4481 83.396 14.3917 83.4453 14.3671L83.4707 14.3544L83.4992 14.356C83.6938 14.3639 83.8535 14.3695 84.0504 14.3695C84.2156 14.3695 84.3658 14.3655 84.5873 14.356L84.6159 14.3544L84.6413 14.3671ZM74.744 14.7149C74.5272 14.7149 74.4096 14.7395 74.3667 14.7538C74.3596 14.784 74.3524 14.8563 74.3524 15.0192L74.3532 15.0183V16.7132C74.3532 16.9363 74.3643 17.065 74.4247 17.1508C74.4977 17.2532 74.6304 17.2929 74.9004 17.2929C75.8765 17.2929 76.0814 16.571 76.0814 15.965C76.0814 15.672 75.9845 14.7149 74.744 14.7149ZM62.7007 15.753C62.7976 15.753 62.8746 15.7832 62.9302 15.8428C63.0208 15.9389 63.0144 16.0731 63.0136 16.0882L63.0089 16.1548H0.76086L0.75609 16.0882C0.75609 16.0731 0.74978 15.9389 0.840319 15.8428C0.895909 15.7832 0.972914 15.753 1.0698 15.753H62.7007ZM152.93 15.753C153.027 15.753 153.104 15.7832 153.16 15.8428C153.25 15.9389 153.244 16.0731 153.243 16.0882L153.238 16.1548H90.991L90.9862 16.0882C90.9854 16.0731 90.9791 15.9397 91.0696 15.8428C91.1252 15.7832 91.2023 15.753 91.2992 15.753H152.93ZM67.9972 15.2725L67.7208 16.035H68.2633L68.0155 15.2876C68.0123 15.2765 68.0083 15.2654 68.0044 15.2535L67.9972 15.2725ZM74.3501 0.0405439C74.3533 0.0525162 74.3794 0.158922 74.3199 0.235934C74.2953 0.268491 74.246 0.306607 74.1531 0.306609C74.1492 0.306609 74.1444 0.306608 74.1357 0.31772C74.0332 0.44876 74.1261 1.13967 74.1531 1.2493L75.1403 7.58229C75.373 6.2798 76.2363 1.45744 76.2745 1.22469C76.1601 0.657693 76.01 0.307441 75.9361 0.307366C75.7304 0.307366 75.6645 0.145339 75.659 0.0595652L75.6549 0.00162874H77.5055L78.6078 7.60055L79.927 1.24139C79.9532 1.16197 80.0866 0.452716 79.9897 0.31929C79.9834 0.309772 79.9794 0.309751 79.9762 0.309751C79.8833 0.309749 79.8357 0.271635 79.8126 0.239075C79.7563 0.160449 79.7896 0.0532131 79.7936 0.0413001L79.8062 0.00401367H81.5869L81.5789 0.0659638C81.5678 0.150153 81.4931 0.309751 81.289 0.309751C81.2088 0.309767 81.0349 0.671158 80.884 1.27553L79.3361 8.70053C79.2821 8.91497 79.1812 9.5241 79.2694 9.63688C79.2757 9.64481 79.2797 9.64485 79.2829 9.64485C79.3758 9.64485 79.4234 9.68296 79.4465 9.71552C79.5028 9.79411 79.4696 9.90123 79.4656 9.91324L79.4529 9.95058H77.5817L77.5753 9.90376L76.7065 3.67082L75.8607 8.69815C75.8202 8.85938 75.7082 9.5225 75.7987 9.63845C75.8996 9.64401 75.9473 9.68215 75.9703 9.71471C76.0267 9.79333 75.9933 9.90057 75.9893 9.91248L75.9766 9.94977H73.7044L73.6933 9.90928C73.6901 9.89737 73.6639 9.79093 73.7234 9.71389C73.7481 9.68133 73.7974 9.64322 73.8903 9.64322C73.8927 9.64322 73.8982 9.64317 73.9069 9.63129C74.0101 9.49309 73.9141 8.78479 73.891 8.7053L72.722 1.27629C72.7188 1.26596 72.7148 1.2477 72.7045 1.20404C72.5155 0.371833 72.3892 0.307383 72.3551 0.307366L72.3558 0.305795C72.1597 0.305782 72.0969 0.143765 72.0914 0.0579946L72.0874 0H74.339L74.3501 0.0405439ZM71.5656 0.0484549C71.5672 0.0603752 71.5783 0.163611 71.5132 0.238261C71.4727 0.284322 71.4147 0.307363 71.3408 0.307366C71.2487 0.307366 71.1589 0.780713 71.1589 1.26279V5.46807C71.5155 5.15436 71.4568 4.66037 71.4568 4.65481L71.4425 4.54045L71.5402 4.60164C71.8563 4.80019 72.0318 5.12897 72.0222 5.50303C72.0127 5.87471 71.8221 6.20905 71.5243 6.37505C71.4044 6.44732 71.2812 6.49899 71.1589 6.52838V8.68779C71.1589 9.16987 71.2495 9.64322 71.3408 9.64322C71.4147 9.64322 71.4727 9.66626 71.5132 9.71232C71.5791 9.78777 71.5672 9.89101 71.5656 9.90213L71.5592 9.94977H69.3252L69.3188 9.90213C69.3172 9.89022 69.3061 9.78698 69.3712 9.71232C69.4117 9.66627 69.4697 9.64322 69.5435 9.64322C69.6452 9.64322 69.7246 9.12937 69.7246 8.68779V6.49185C69.4649 6.45293 69.2203 6.43385 68.9789 6.43385C68.5977 6.43385 68.3054 6.5403 68.11 6.75076C67.807 7.07679 67.8391 7.54936 67.8392 7.55524V8.68779C67.8392 9.16987 67.9297 9.64322 68.0211 9.64322C68.0949 9.64322 68.1537 9.66624 68.1958 9.71151C68.2649 9.78458 68.2593 9.88706 68.2593 9.89817L68.2561 9.94896H66.4779L66.4716 9.90132C66.4708 9.89011 66.4597 9.79008 66.5248 9.71547C66.5669 9.66703 66.6296 9.64241 66.7098 9.6424L66.7106 9.64322C66.8036 9.64319 66.879 9.12062 66.879 8.68779V1.26361C66.879 0.830781 66.8036 0.308213 66.7106 0.30818C66.6304 0.30818 66.5677 0.283548 66.5256 0.23512C66.4597 0.160504 66.4708 0.0604767 66.4724 0.0492693L66.4787 0.00157057H68.2569L68.2601 0.0524104C68.2609 0.0635292 68.2657 0.165214 68.1966 0.239075C68.1545 0.284332 68.0957 0.30736 68.0219 0.307366C67.9298 0.307366 67.84 0.780713 67.84 1.26279V6.18128C68.3189 5.74607 69.0543 5.7095 69.7246 5.71983V1.26279C69.7246 0.821217 69.646 0.307366 69.5435 0.307366C69.4697 0.307362 69.4117 0.284315 69.3712 0.238261C69.3061 0.162816 69.3172 0.0603771 69.3188 0.0484549L69.3252 0.000814368H71.5592L71.5656 0.0484549ZM66.192 0.0571803C66.192 0.420929 66.0045 1.042 65.8227 1.64241C65.6797 2.11335 65.5455 2.55888 65.5225 2.8162C65.5225 2.83447 65.5249 2.85197 65.5272 2.86785C65.5773 2.72649 65.7083 2.62559 65.8616 2.62558C66.0617 2.62558 66.2309 2.8035 66.2309 2.9949C66.2309 3.1863 66.084 3.43013 65.8116 3.50638C65.6821 3.54529 65.3557 3.61199 65.1031 3.37532C64.7156 3.01316 64.8101 2.37542 64.8935 1.81313C64.9586 1.37076 65.0205 0.953014 64.845 0.745728C64.7632 0.648836 64.6322 0.600379 64.444 0.596408H63.9357V8.68773C63.9357 9.06498 64.0175 9.64316 64.1176 9.64316C64.1914 9.64317 64.2502 9.6662 64.2922 9.71145C64.3613 9.78452 64.3558 9.88699 64.3558 9.89812L64.3526 9.94896H62.1026L62.0963 9.90132C62.0947 9.8894 62.0836 9.78611 62.1487 9.71145C62.1892 9.6654 62.2472 9.6424 62.3211 9.6424C62.4243 9.64235 62.5022 9.13806 62.5022 8.68698V0.595652H61.9931C61.8056 0.599623 61.6746 0.648036 61.5928 0.744914C61.4173 0.952197 61.4792 1.36995 61.5443 1.81232C61.6277 2.37541 61.7222 3.01241 61.3346 3.37457C61.1559 3.54212 60.9114 3.58656 60.6263 3.50556C60.4293 3.4452 60.2196 3.22524 60.2196 2.99414C60.2196 2.79083 60.38 2.62484 60.5762 2.62482L60.5754 2.62639C60.7271 2.6264 60.8605 2.72332 60.9169 2.85674C60.9177 2.84483 60.9169 2.83209 60.9153 2.81858C60.897 2.55173 60.7597 2.0919 60.6143 1.60506C60.4396 1.01895 60.2585 0.413781 60.2585 0.0571803V0.00232677H66.192V0.0571803ZM84.1323 0.0484549C84.1339 0.0595736 84.145 0.159651 84.0799 0.234305C84.0378 0.282752 83.975 0.307366 83.8948 0.307366C83.8027 0.307451 83.7129 0.780756 83.7129 1.26279V5.56498L85.6945 1.25325C85.8898 0.805326 86.0169 0.362183 85.9661 0.305795C85.8716 0.304201 85.8343 0.268453 85.816 0.23669C85.7699 0.154887 85.8295 0.0476397 85.8422 0.0269905L85.8581 0.000814368H87.6308L87.6069 0.0730604C87.6037 0.0825908 87.5259 0.307366 87.2924 0.307366C87.2431 0.307396 87.0858 0.396456 86.6785 1.22149L86.6586 1.26122L84.8089 5.31241L86.8659 8.65842C87.1606 9.13176 87.5529 9.6424 87.6721 9.6424C87.9134 9.64241 88.0183 9.86144 88.0231 9.87113L88.0596 9.94896H85.7953L85.7786 9.92673C85.7635 9.90605 85.6905 9.79884 85.7326 9.71547C85.7556 9.66941 85.8057 9.64481 85.8803 9.64322C85.9057 9.51615 85.5237 8.81805 85.4506 8.72037L84.1895 6.66496L83.7129 7.68949V8.68698C83.7129 9.16901 83.8035 9.64232 83.8948 9.6424C83.975 9.6424 84.0378 9.66702 84.0799 9.71547C84.145 9.79008 84.1339 9.89012 84.1323 9.90132L84.1259 9.94896H81.8791L81.8728 9.90132C81.872 9.89011 81.8609 9.79008 81.926 9.71547C81.9681 9.66703 82.0308 9.64241 82.111 9.6424H82.1102C82.2039 9.6424 82.2786 9.11982 82.2786 8.68698V1.26279C82.2786 0.829953 82.2031 0.307366 82.1102 0.307366C82.03 0.307361 81.9673 0.282747 81.9252 0.234305C81.8601 0.159651 81.8712 0.0595738 81.8728 0.0484549L81.8791 0.000814368H84.1259L84.1323 0.0484549ZM93.7937 0.0484549C93.7953 0.0595737 93.8064 0.15965 93.7413 0.234305C93.6992 0.282741 93.6365 0.307366 93.5563 0.307366C93.4697 0.307383 93.3879 0.771986 93.3879 1.26279V8.7124C93.3879 9.18176 93.4713 9.64163 93.5563 9.64165C93.6365 9.64165 93.6992 9.66626 93.7413 9.71471C93.8064 9.78936 93.7953 9.88944 93.7937 9.90056L93.7874 9.9482H91.9687L91.9567 9.91086L89.6758 2.96872V8.68779C89.683 9.18734 89.7695 9.64322 89.8577 9.64322C89.9315 9.64322 89.9903 9.66625 90.0324 9.71151C90.1015 9.78458 90.096 9.88706 90.096 9.89817L90.0928 9.94896H88.3145L88.3082 9.90132C88.3074 9.89012 88.2963 9.79009 88.3614 9.71547C88.4035 9.66703 88.4662 9.6424 88.5464 9.6424L88.5473 9.64322C88.6338 9.64313 88.7156 9.17856 88.7156 8.68779V1.26361C88.7156 0.772837 88.6338 0.308267 88.5473 0.30818C88.4671 0.30818 88.4043 0.283561 88.3622 0.23512C88.2963 0.1605 88.3074 0.0604661 88.309 0.0492693L88.3153 0.00157057H90.1476L90.1595 0.0389151L91.9543 5.51176V1.26279C91.9543 0.885565 91.8726 0.307421 91.7725 0.307366C91.6923 0.307366 91.6296 0.282741 91.5875 0.234305C91.5216 0.15965 91.5327 0.0595737 91.5342 0.0484549L91.5406 0.000814368H93.7874L93.7937 0.0484549ZM95.9198 0.00157057C98.0482 0.00157307 99.319 1.12538 99.319 3.00763C99.319 3.31737 99.3214 3.94478 99.3245 4.6405C99.3285 5.50618 99.3325 6.4775 99.3325 7.07395C99.3325 8.74018 98.3381 9.94895 96.9689 9.94896H94.14L94.1337 9.90132C94.1329 9.8902 94.1217 9.79012 94.1868 9.71547C94.2289 9.66702 94.2917 9.6424 94.3719 9.6424L94.3727 9.64322C94.4664 9.64322 94.5411 9.12063 94.5411 8.68779V1.26355C94.5411 0.830713 94.4656 0.308122 94.3727 0.308122C94.2925 0.308119 94.2297 0.283505 94.1876 0.235061C94.1217 0.160407 94.1328 0.0603295 94.1344 0.0492111L94.1407 0.00157057H95.9198ZM56.9332 0.0349596C56.938 0.0468758 56.9793 0.155665 56.9253 0.235876C56.9039 0.268435 56.8578 0.306545 56.7649 0.306551C56.741 0.331172 56.6767 0.468588 56.888 1.21911L56.8959 1.2493L57.6663 4.59926L58.3549 1.23819C58.3874 1.15241 58.5661 0.439995 58.4788 0.313706C58.474 0.307364 58.4724 0.307366 58.4692 0.307366C58.3763 0.307366 58.331 0.269249 58.3088 0.23669C58.2548 0.156534 58.296 0.0478187 58.3008 0.035774L58.3143 0.00157057H60.0973L60.0846 0.06672C60.068 0.150109 59.9838 0.307357 59.782 0.307366C59.6439 0.307366 59.3572 1.08884 59.3103 1.27629L58.1444 6.41082V8.68698C58.1444 9.06422 58.2262 9.64238 58.3262 9.6424C58.4001 9.6424 58.4589 9.66543 58.501 9.7107C58.5701 9.78376 58.5645 9.88624 58.5645 9.89736L58.5614 9.9482H56.3114L56.305 9.90056C56.3034 9.88865 56.2923 9.78535 56.3575 9.7107C56.398 9.66465 56.4559 9.64165 56.5298 9.64165C56.6338 9.64165 56.7116 9.13732 56.7116 8.68622V6.65938L55.4679 1.27786C55.4648 1.26912 55.46 1.25483 55.4528 1.23499C55.1439 0.351847 54.9962 0.307366 54.9699 0.307366L54.9676 0.306551C54.7762 0.306545 54.6944 0.149295 54.6777 0.0659056L54.665 0.000814368H56.9197L56.9332 0.0349596ZM95.9746 9.30723C96.0604 9.31835 96.1358 9.32713 96.2216 9.32713C97.2572 9.32713 97.8981 8.19141 97.8981 7.1391C97.8981 6.52121 97.8942 5.44503 97.8902 4.52852C97.8878 3.84948 97.8854 3.2586 97.8854 3.00763C97.8854 1.51612 97.6075 0.835508 95.9746 0.781502V9.30723Z" fill="#BABABA"/>
</svg>
